<svg data-name="Layer 1" xmlns="http://www.w3.org/2000/svg" viewBox="0 0 128 128">
    <path d="m122.562 102.345-14.805-48.057a18.807 18.807 0 0 0-18-13.408 19.784 19.784 0 0 0-4.192.464L68.75 45.168v-9.809a1.75 1.75 0 0 0-1.75-1.75h-1.25v-7.49A22.213 22.213 0 0 1 68.407 15.6l4.466-8.271a1.75 1.75 0 0 0-3.08-1.662l-4.466 8.273a25.725 25.725 0 0 0-3.077 12.179v7.49H61a1.75 1.75 0 0 0-1.75 1.75v9.809l-16.814-3.825a19.009 19.009 0 0 0-4.176-.463 18.809 18.809 0 0 0-18.013 13.394L5.435 102.357a16.233 16.233 0 0 0 27.829 15.277c.032-.037.063-.075.092-.115l16.261-22.353a4.249 4.249 0 0 1 3.433-1.746h21.9a4.25 4.25 0 0 1 3.435 1.749l16.26 22.351c.029.04.06.078.092.115a16.235 16.235 0 0 0 27.826-15.29zm-6.55 13.678a12.729 12.729 0 0 1-18.582-.623L81.217 93.113a7.755 7.755 0 0 0-6.267-3.193h-21.9a7.754 7.754 0 0 0-6.265 3.19L30.57 115.4a12.734 12.734 0 0 1-21.787-12.024L23.6 55.292A15.307 15.307 0 0 1 38.26 44.38a15.483 15.483 0 0 1 3.4.376l17.548 3.992c.335.075.672.117 1.009.169a1.73 1.73 0 0 0 .782.192h6a1.732 1.732 0 0 0 .783-.193c.339-.052.677-.095 1.016-.171l17.537-3.989a14.934 14.934 0 0 1 3.3-.377 15.306 15.306 0 0 1 14.772 10.926l14.807 48.058a12.717 12.717 0 0 1-3.201 12.659z" fill="#FFFFFF"/>
    <path d="M86.066 89.581a1.75 1.75 0 1 0-2.83 2.059l11.886 16.337a1.75 1.75 0 1 0 2.83-2.059zM76.323 81.563h-6a1.75 1.75 0 0 0 0 3.5h6a1.75 1.75 0 0 0 0-3.5zM57.677 81.563h-6a1.75 1.75 0 0 0 0 3.5h6a1.75 1.75 0 0 0 0-3.5zM53.739 69.738v-8.226a1.75 1.75 0 0 0-1.75-1.75h-5.937v-5.938a1.75 1.75 0 0 0-1.75-1.75h-8.227a1.75 1.75 0 0 0-1.75 1.75v5.938h-5.937a1.75 1.75 0 0 0-1.75 1.75v8.227a1.75 1.75 0 0 0 1.75 1.75h5.937v5.938a1.75 1.75 0 0 0 1.75 1.75H44.3a1.75 1.75 0 0 0 1.75-1.75v-5.939h5.938a1.75 1.75 0 0 0 1.751-1.75zm-3.5-1.75H44.3a1.75 1.75 0 0 0-1.75 1.75v5.938h-4.725v-5.938a1.75 1.75 0 0 0-1.75-1.75h-5.937v-4.726h5.937a1.75 1.75 0 0 0 1.75-1.75v-5.938h4.727v5.938a1.75 1.75 0 0 0 1.75 1.75h5.938zM95.5 59.762a5.829 5.829 0 0 0-2.291.467 5.863 5.863 0 1 0-10.794 0 5.863 5.863 0 1 0 0 10.793 5.863 5.863 0 1 0 10.794 0 5.863 5.863 0 1 0 2.291-11.26zm-15.376 8.226a2.363 2.363 0 1 1 2.363-2.363 2.366 2.366 0 0 1-2.363 2.363zm7.688 7.688a2.363 2.363 0 1 1 2.363-2.363 2.366 2.366 0 0 1-2.363 2.363zm-2.291-12.342a5.857 5.857 0 0 0 4.581 0 5.858 5.858 0 0 0 0 4.582 5.857 5.857 0 0 0-4.581 0 5.858 5.858 0 0 0 0-4.582zm2.291-3.034a2.363 2.363 0 1 1 2.363-2.363 2.366 2.366 0 0 1-2.363 2.363zm7.688 7.688a2.363 2.363 0 1 1 2.363-2.363 2.366 2.366 0 0 1-2.363 2.363z" fill="#FFFFFF"/>
</svg>
